<svg width="0" height="0" class="hidden">
  <symbol xmlns="http://www.w3.org/2000/svg" version="1.1" viewBox="-5.0 -10.0 110.0 135.0" id="home-server" >
    <path d="m93.98 39.312-42.836-28.543c-0.69531-0.45703-1.5938-0.45703-2.2891 0l-42.836 28.543c-1.1602 0.77734-1.8555 2.082-1.8516 3.4805v1.2305-0.003907c-0.003907 1.543 0.84375 2.9648 2.207 3.6875 0.60547 0.3125 1.2773 0.47656 1.957 0.48047 0.82422 0.003906 1.6289-0.23438 2.3125-0.6875l39.355-26.25 39.355 26.23c1.2461 0.81641 2.8359 0.90234 4.1641 0.22656 1.4023-0.69531 2.2969-2.1211 2.3125-3.6875v-1.2305 0.003907c0.003907-1.3984-0.69141-2.7031-1.8516-3.4805z"></path>
    <path d="m68.75 72.918h-37.5c-2.3008 0-4.168 1.8633-4.168 4.1641v8.3359c0 1.1055 0.44141 2.1641 1.2227 2.9453s1.8398 1.2188 2.9453 1.2188h37.5c1.1055 0 2.1641-0.4375 2.9453-1.2188s1.2227-1.8398 1.2227-2.9453v-8.3359c0-1.1055-0.44141-2.1641-1.2227-2.9453s-1.8398-1.2188-2.9453-1.2188zm-20.832 10.414h-12.5c-1.1523 0-2.0859-0.92969-2.0859-2.082s0.93359-2.082 2.0859-2.082h12.5c1.1484 0 2.082 0.92969 2.082 2.082s-0.93359 2.082-2.082 2.082zm8.332 0c-1.1523 0-2.082-0.92969-2.082-2.082s0.92969-2.082 2.082-2.082 2.082 0.92969 2.082 2.082-0.92969 2.082-2.082 2.082zm8.332 0c-1.1484 0-2.082-0.92969-2.082-2.082s0.93359-2.082 2.082-2.082c1.1523 0 2.0859 0.92969 2.0859 2.082s-0.93359 2.082-2.0859 2.082z"></path>
    <path d="m68.75 52.082h-37.5c-2.3008 0-4.168 1.8672-4.168 4.168v8.332c0 1.1055 0.44141 2.168 1.2227 2.9492s1.8398 1.2188 2.9453 1.2188h37.5c1.1055 0 2.1641-0.4375 2.9453-1.2188s1.2227-1.8438 1.2227-2.9492v-8.332c0-1.1055-0.44141-2.1641-1.2227-2.9453s-1.8398-1.2227-2.9453-1.2227zm-20.832 10.418h-12.5c-1.1523 0-2.0859-0.93359-2.0859-2.082 0-1.1523 0.93359-2.0859 2.0859-2.0859h12.5c1.1484 0 2.082 0.93359 2.082 2.0859 0 1.1484-0.93359 2.082-2.082 2.082zm8.332 0c-1.1523 0-2.082-0.93359-2.082-2.082 0-1.1523 0.92969-2.0859 2.082-2.0859s2.082 0.93359 2.082 2.0859c0 1.1484-0.92969 2.082-2.082 2.082zm8.332 0c-1.1484 0-2.082-0.93359-2.082-2.082 0-1.1523 0.93359-2.0859 2.082-2.0859 1.1523 0 2.0859 0.93359 2.0859 2.0859 0 1.1484-0.93359 2.082-2.0859 2.082z"></path>
    <path d="m29.168 16.668c0-1.1055-0.44141-2.168-1.2227-2.9492s-1.8398-1.2188-2.9453-1.2188h-8.332c-2.3008 0-4.168 1.8672-4.168 4.168v13.312l16.668-11.105z"></path>
    <path d="m50 26.27-37.043 24.688c-0.78125 0.50781-1.6406 0.88672-2.5391 1.125v33.336c0 1.1055 0.4375 2.1641 1.2188 2.9453s1.8398 1.2188 2.9453 1.2188h9.5c-0.75781-1.2578-1.1602-2.6953-1.1641-4.1641v-8.3359c0.011719-2.3984 1.0586-4.6758 2.875-6.25-1.8164-1.5703-2.8633-3.8477-2.875-6.25v-8.332c0-4.6016 3.7305-8.332 8.332-8.332h37.5c2.2109 0 4.3281 0.875 5.8906 2.4414 1.5664 1.5625 2.4414 3.6797 2.4414 5.8906v8.332c-0.011719 2.4023-1.0586 4.6797-2.875 6.25 1.8164 1.5742 2.8633 3.8516 2.875 6.25v8.3359c-0.003906 1.4688-0.40625 2.9062-1.1641 4.1641h9.5c1.1055 0 2.1641-0.4375 2.9453-1.2188s1.2188-1.8398 1.2188-2.9453v-33.336c-0.90234-0.23047-1.7617-0.60938-2.5391-1.125z"></path>
    
  </symbol>
  <symbol xmlns="http://www.w3.org/2000/svg" version="1.1" viewBox="-5.0 -10.0 110.0 135.0" id="server">
    <path d="m47.918 20.832h-25c-1.1523 0-2.0859 0.93359-2.0859 2.0859 0 1.1484 0.93359 2.082 2.0859 2.082h25c1.1484 0 2.082-0.93359 2.082-2.082 0-1.1523-0.93359-2.0859-2.082-2.0859z"></path>
    <path d="m47.918 41.668h-25c-1.1523 0-2.0859 0.92969-2.0859 2.082s0.93359 2.082 2.0859 2.082h25c1.1484 0 2.082-0.92969 2.082-2.082s-0.93359-2.082-2.082-2.082z"></path>
    <path d="m70.832 22.918c0 4.1641-6.25 4.1641-6.25 0 0-4.168 6.25-4.168 6.25 0"></path>
    <path d="m60.418 22.918c0 4.1641-6.25 4.1641-6.25 0 0-4.168 6.25-4.168 6.25 0"></path>
    <path d="m70.832 43.75c0 4.168-6.25 4.168-6.25 0s6.25-4.168 6.25 0"></path>
    <path d="m60.418 43.75c0 4.168-6.25 4.168-6.25 0s6.25-4.168 6.25 0"></path>
    <path d="m70.832 64.582c0 4.168-6.25 4.168-6.25 0 0-4.1641 6.25-4.1641 6.25 0"></path>
    <path d="m60.418 64.582c0 4.168-6.25 4.168-6.25 0 0-4.1641 6.25-4.1641 6.25 0"></path>
    <path d="m22.918 62.5c-1.1523 0-2.0859 0.93359-2.0859 2.082 0 1.1523 0.93359 2.0859 2.0859 2.0859h25c1.1484 0 2.082-0.93359 2.082-2.0859 0-1.1484-0.93359-2.082-2.082-2.082z"></path>
    <path d="m58.605 72.918h-39.855c-2.3008 0-4.168-1.8672-4.168-4.168v-8.332c0-2.3008 1.8672-4.168 4.168-4.168h54.168c1.1055 0 2.1641 0.4375 2.9453 1.2188s1.2188 1.8438 1.2188 2.9492v5.293-0.003907c0 1.1523 0.93359 2.0859 2.0859 2.0859 1.1484 0 2.082-0.93359 2.082-2.0859v-5.2891c-0.011719-2.4023-1.0625-4.6797-2.875-6.25 1.8125-1.5742 2.8633-3.8516 2.875-6.25v-8.3359c-0.011719-2.3984-1.0625-4.6758-2.875-6.25 1.8125-1.5703 2.8633-3.8477 2.875-6.25v-8.332c0-2.2109-0.87891-4.3281-2.4414-5.8906-1.5625-1.5664-3.6836-2.4414-5.8906-2.4414h-54.168c-4.6016 0-8.332 3.7305-8.332 8.332v8.332c0.011719 2.4023 1.0586 4.6797 2.875 6.25-1.8164 1.5742-2.8633 3.8516-2.875 6.25v8.3359c0.011719 2.3984 1.0586 4.6758 2.875 6.25-1.8164 1.5703-2.8633 3.8477-2.875 6.25v8.332c0 2.2109 0.875 4.3281 2.4414 5.8906 1.5625 1.5664 3.6797 2.4414 5.8906 2.4414h39.855c1.1484 0 2.082-0.92969 2.082-2.082s-0.93359-2.082-2.082-2.082zm-44.023-45.836v-8.332c0-2.3008 1.8672-4.168 4.168-4.168h54.168c1.1055 0 2.1641 0.44141 2.9453 1.2227s1.2188 1.8398 1.2188 2.9453v8.332c0 1.1055-0.4375 2.168-1.2188 2.9492s-1.8398 1.2188-2.9453 1.2188h-54.168c-2.3008 0-4.168-1.8672-4.168-4.168zm0 20.836v-8.3359c0-2.3008 1.8672-4.1641 4.168-4.1641h54.168c1.1055 0 2.1641 0.4375 2.9453 1.2188s1.2188 1.8398 1.2188 2.9453v8.3359c0 1.1055-0.4375 2.1641-1.2188 2.9453s-1.8398 1.2188-2.9453 1.2188h-54.168c-2.3008 0-4.168-1.8633-4.168-4.1641z"></path>
    <path d="m76.48 75.605-4.168-4.168c-0.39062-0.39453-0.92188-0.61719-1.4805-0.61719-0.55469 0-1.0859 0.22266-1.4766 0.61719l-4.168 4.168c-0.81641 0.81641-0.81641 2.1406 0 2.957s2.1406 0.81641 2.957 0l0.60547-0.625v9.5625c0 1.1523 0.93359 2.082 2.082 2.082 1.1523 0 2.0859-0.92969 2.0859-2.082v-9.5625l0.60547 0.625h-0.003907c0.39062 0.39453 0.92578 0.61719 1.4805 0.61719s1.0898-0.22266 1.4805-0.61719c0.39453-0.39062 0.61328-0.92188 0.61328-1.4805 0-0.55469-0.21875-1.0859-0.61328-1.4766z"></path>
    <path d="m88.98 81.855c-0.39062-0.39453-0.92578-0.61719-1.4805-0.61719s-1.0898 0.22266-1.4805 0.61719l-0.60547 0.625 0.003907-9.5625c0-1.1523-0.93359-2.0859-2.0859-2.0859-1.1484 0-2.082 0.93359-2.082 2.0859v9.5625l-0.60547-0.625c-0.81641-0.81641-2.1406-0.81641-2.957 0-0.81641 0.81641-0.81641 2.1406 0 2.957l4.168 4.168c0.39062 0.39453 0.92188 0.61328 1.4766 0.61328 0.55859 0 1.0898-0.21875 1.4805-0.61328l4.168-4.168c0.39453-0.39062 0.61328-0.92188 0.61328-1.4805 0-0.55469-0.21875-1.0859-0.61328-1.4766z"></path>
  </symbol>

</svg>
